<?xml version="1.0" encoding="UTF-8"?>
<svg width="305px" height="147px" viewBox="0 0 305 147" version="1.1" xmlns="http://www.w3.org/2000/svg" xmlns:xlink="http://www.w3.org/1999/xlink">
    <title>Revas-Logo</title>
    <defs>
        <path d="M231.554688,31 L231.554688,23.6025391 C231.554688,20.8876953 232.453125,19.5302734 234.25,19.5302734 C234.845703,19.5302734 235.456055,19.7548828 236.081055,20.2041016 L236.081055,20.2041016 L237.589844,17.1865234 C236.642578,16.6201172 235.734375,16.3369141 234.865234,16.3369141 C234.210938,16.3369141 233.644531,16.4589844 233.166016,16.703125 C232.697266,16.9375 232.160156,17.3720703 231.554688,18.0068359 L231.554688,18.0068359 L231.554688,16.7324219 L228.258789,16.7324219 L228.258789,31 L231.554688,31 Z M245.661133,31.4101562 C246.40332,31.4101562 247.091797,31.3320312 247.726562,31.1757812 C248.361328,31.0195312 248.952148,30.7729492 249.499023,30.4360352 C250.045898,30.0991211 250.558594,29.6694336 251.037109,29.1469727 C251.515625,28.6245117 251.969727,27.9970703 252.399414,27.2646484 L252.399414,27.2646484 L249.616211,25.7119141 C248.942383,26.7666016 248.341797,27.4892578 247.814453,27.8798828 C247.277344,28.2705078 246.598633,28.4658203 245.77832,28.4658203 C244.723633,28.4658203 243.859375,28.1240234 243.185547,27.4404297 C242.511719,26.7470703 242.130859,25.8144531 242.042969,24.6425781 L242.042969,24.6425781 L252.267578,24.6425781 L252.282227,23.8662109 C252.282227,21.5126953 251.676758,19.671875 250.46582,18.34375 C249.245117,17.0058594 247.584961,16.3369141 245.485352,16.3369141 C243.405273,16.3369141 241.735352,17.0253906 240.475586,18.4023438 C239.225586,19.7988281 238.600586,21.625 238.600586,23.8808594 C238.600586,26.15625 239.245117,27.9824219 240.53418,29.359375 C241.823242,30.7265625 243.532227,31.4101562 245.661133,31.4101562 Z M248.883789,21.9472656 L242.262695,21.9472656 C242.370117,21.5371094 242.526367,21.1708984 242.731445,20.8486328 C242.936523,20.5263672 243.183105,20.2504883 243.471191,20.0209961 C243.759277,19.7915039 244.079102,19.6157227 244.430664,19.4936523 C244.782227,19.371582 245.158203,19.3105469 245.558594,19.3105469 C247.316406,19.3105469 248.424805,20.1894531 248.883789,21.9472656 L248.883789,21.9472656 Z M260.792969,31.9814453 L268.205078,16.7324219 L264.499023,16.7324219 L260.822266,24.7451172 L257.130859,16.7324219 L253.439453,16.7324219 L260.792969,31.9814453 Z M276.056641,31.4101562 C277.619141,31.4101562 279.079102,30.7753906 280.436523,29.5058594 L280.436523,29.5058594 L280.436523,31 L283.74707,31 L283.74707,16.7324219 L280.436523,16.7324219 L280.436523,18.3876953 C279.118164,17.0205078 277.628906,16.3369141 275.96875,16.3369141 C274.044922,16.3369141 272.443359,17.0498047 271.164062,18.4755859 C269.884766,19.9013672 269.245117,21.6835938 269.245117,23.8222656 C269.245117,26 269.884766,27.8164062 271.164062,29.2714844 C272.453125,30.6972656 274.083984,31.4101562 276.056641,31.4101562 Z M276.554688,28.4658203 C275.412109,28.4658203 274.464844,28.03125 273.712891,27.1621094 C272.980469,26.3027344 272.614258,25.1894531 272.614258,23.8222656 C272.614258,22.5429688 272.990234,21.46875 273.742188,20.5996094 C274.503906,19.7402344 275.451172,19.3105469 276.583984,19.3105469 C277.785156,19.3105469 278.761719,19.7353516 279.513672,20.5849609 C280.265625,21.4541016 280.641602,22.5576172 280.641602,23.8955078 C280.641602,25.2333984 280.265625,26.3369141 279.513672,27.2060547 C278.761719,28.0458984 277.775391,28.4658203 276.554688,28.4658203 Z M292.023438,31.4101562 C293.419922,31.4101562 294.611328,30.9707031 295.597656,30.0917969 C296.613281,29.1640625 297.121094,28.0117188 297.121094,26.6347656 C297.121094,25.5605469 296.818359,24.7060547 296.212891,24.0712891 C295.607422,23.4365234 294.430664,22.7431641 292.682617,21.9912109 C291.413086,21.4541016 290.77832,20.9121094 290.77832,20.3652344 C290.77832,20.0527344 290.885742,19.7963867 291.100586,19.5961914 C291.31543,19.3959961 291.574219,19.2958984 291.876953,19.2958984 C292.511719,19.2958984 293.043945,19.7353516 293.473633,20.6142578 L293.473633,20.6142578 L296.198242,19.1640625 C295.30957,17.2792969 293.952148,16.3369141 292.125977,16.3369141 C290.885742,16.3369141 289.831055,16.7421875 288.961914,17.5527344 C288.112305,18.3632812 287.6875,19.3886719 287.6875,20.6289062 C287.6875,21.5664062 287.936523,22.3330078 288.43457,22.9287109 C288.825195,23.3974609 289.499023,23.8662109 290.456055,24.3349609 C290.797852,24.5009766 291.134766,24.6621094 291.466797,24.8183594 C291.798828,24.9746094 292.130859,25.1357422 292.462891,25.3017578 C293.322266,25.8095703 293.751953,26.3564453 293.751953,26.9423828 C293.751953,27.9580078 293.195312,28.4658203 292.082031,28.4658203 C291.525391,28.4658203 291.046875,28.2802734 290.646484,27.9091797 C290.441406,27.7236328 290.143555,27.2890625 289.75293,26.6054688 L289.75293,26.6054688 L286.94043,27.9091797 C287.936523,30.2431641 289.630859,31.4101562 292.023438,31.4101562 Z" id="path-1"></path>
        <filter x="-2.2%" y="-9.6%" width="104.4%" height="119.2%" filterUnits="objectBoundingBox" id="filter-2">
            <feGaussianBlur stdDeviation="1.5" in="SourceAlpha" result="shadowBlurInner1"></feGaussianBlur>
            <feOffset dx="0" dy="0" in="shadowBlurInner1" result="shadowOffsetInner1"></feOffset>
            <feComposite in="shadowOffsetInner1" in2="SourceAlpha" operator="arithmetic" k2="-1" k3="1" result="shadowInnerInner1"></feComposite>
            <feColorMatrix values="0 0 0 0 0   0 0 0 0 0   0 0 0 0 0  0 0 0 0.195968094 0" type="matrix" in="shadowInnerInner1"></feColorMatrix>
        </filter>
    </defs>
    <g id="页面-1" stroke="none" stroke-width="1" fill="none" fill-rule="evenodd">
        <g id="桌面端-HD备份" transform="translate(-179.000000, -117.000000)">
            <g id="Revas-Logo" transform="translate(179.000000, 117.000000)">
                <path d="M292.308845,75.2080187 C308.69651,91.6241245 308.688021,118.248392 292.289898,134.674995 C275.891751,151.101576 249.313609,151.110077 232.925933,134.693983 C250.419826,117.169731 279.01553,88.5244028 292.308845,75.2080187 Z M234.878203,47.3258857 C251.276349,30.8993044 277.854656,30.8909684 294.242537,47.3072666 C276.748645,64.8315184 248.152943,93.4768477 234.859629,106.793232 C218.471759,90.3769225 218.480081,63.7524897 234.878203,47.3258857 Z" id="形状结合" fill="#40A9FF"></path>
                <path d="M198,35 C227.58309,35 251.808485,57.9390185 253.85936,87.0002296 L254,87 L254,133 L235.0401,133.001273 C225.168414,141.713603 212.201559,147 198,147 C188.49137,147 179.536252,144.630135 171.693074,140.448833 L217.819805,94.3223305 C221.725048,90.4170876 221.725048,84.0854378 217.819805,80.1801948 C213.914562,76.2749519 207.582912,76.2749519 203.67767,80.1801948 L155.913631,127.943457 C147.251987,118.083858 142,105.155263 142,91 C142,60.072054 167.072054,35 198,35 Z" id="形状结合" fill="#91D5FF"></path>
                <path d="M114,35 C144.927946,35 170,60.072054 170,91 C170,105.129489 164.767121,118.036774 156.133647,127.889571 L97.3015152,69.0588745 L83.1593796,83.2010101 L140.371759,140.414215 C132.513112,144.617052 123.53484,147 114,147 C83.072054,147 58,121.927946 58,91 C58,60.072054 83.072054,35 114,35 Z" id="形状结合" fill="#B37FEB"></path>
                <path d="M56,4 C86.927946,4 112,29.072054 112,60 C112,84.2207753 96.6232752,104.850124 75.0993123,112.65856 L111,147 L15,147 C6.71572875,147 1.01453063e-15,140.284271 0,132 L0,59.5 C0.269551589,28.803395 25.2382041,4 56,4 Z" id="形状结合" fill="#9254DE"></path>
                <g id="revas" fill-rule="nonzero">
                    <use fill-opacity="0.496284965" fill="#808080" xlink:href="#path-1"></use>
                    <use fill="black" fill-opacity="1" filter="url(#filter-2)" xlink:href="#path-1"></use>
                </g>
            </g>
        </g>
    </g>
</svg>